<svg width="35" height="35" viewBox="0 0 35 35" fill="none" xmlns="http://www.w3.org/2000/svg">
<path d="M21.7436 17.5C21.7436 15.1569 19.8441 13.2576 17.5012 13.2576C15.158 13.2576 13.2587 15.1569 13.2587 17.5C13.2587 19.8429 15.158 21.7424 17.5012 21.7424C19.8441 21.7424 21.7436 19.8429 21.7436 17.5Z" fill="#FAA4DD"/>
<path fill-rule="evenodd" clip-rule="evenodd" d="M17.077 7.06616C16.8196 7.06605 16.5811 7.06594 16.3594 7.06629V7.06311C13.9874 7.06576 13.5324 7.08167 12.3583 7.1347C11.1174 7.1917 10.4436 7.39852 9.995 7.57352C9.40106 7.80473 8.97682 8.08049 8.53136 8.52595C8.08591 8.9714 7.80962 9.39564 7.57894 9.98958C7.40473 10.4382 7.19738 11.1117 7.14064 12.3526C7.07966 13.6943 7.06746 14.0952 7.06746 17.4939C7.06746 20.8926 7.07966 21.2956 7.14064 22.6373C7.19712 23.8782 7.40473 24.5517 7.57894 24.9998C7.81015 25.594 8.08591 26.0172 8.53136 26.4626C8.97682 26.9081 9.40106 27.1839 9.995 27.4145C10.4439 27.5887 11.1174 27.7961 12.3583 27.8534C13.7 27.9144 14.1027 27.9276 17.5012 27.9276C20.8994 27.9276 21.3024 27.9144 22.6441 27.8534C23.885 27.7966 24.559 27.5898 25.0071 27.4148C25.6013 27.1841 26.0242 26.9084 26.4697 26.4629C26.9151 26.0177 27.1914 25.5948 27.4221 25.0009C27.5963 24.5528 27.8036 23.8793 27.8604 22.6384C27.9214 21.2967 27.9346 20.8937 27.9346 17.4971C27.9346 14.1005 27.9214 13.6975 27.8604 12.3558C27.8039 11.1149 27.5963 10.4414 27.4221 9.9933C27.1909 9.39936 26.9151 8.97511 26.4697 8.52966C26.0245 8.0842 25.601 7.80845 25.0071 7.57776C24.5584 7.40356 23.885 7.19621 22.6441 7.13947C21.3021 7.07848 20.8994 7.06629 17.5012 7.06629C17.3543 7.06629 17.213 7.06622 17.077 7.06616ZM22.7676 10.7063C22.7676 9.86284 23.4517 9.17954 24.2949 9.17954C25.1381 9.17954 25.8222 9.8631 25.8222 10.7063C25.8222 11.5495 25.1381 12.2336 24.2949 12.2336C23.4517 12.2336 22.7676 11.5495 22.7676 10.7063ZM10.9652 17.5C10.9652 13.8905 13.8917 10.964 17.5012 10.964C21.1107 10.964 24.0361 13.8905 24.0361 17.5C24.0361 21.1095 21.1107 24.0347 17.5012 24.0347C13.8917 24.0347 10.9652 21.1095 10.9652 17.5Z" fill="#FAA4DD"/>
<path fill-rule="evenodd" clip-rule="evenodd" d="M0.953722 4.77773C0 6.64951 0 9.09982 0 14.0004V21.0006C0 25.9012 0 28.3515 0.953722 30.2233C1.79264 31.8698 3.13126 33.2084 4.77773 34.0473C6.64951 35.0011 9.09982 35.0011 14.0004 35.0011H21.0006C25.9012 35.0011 28.3515 35.0011 30.2233 34.0473C31.8698 33.2084 33.2084 31.8698 34.0473 30.2233C35.0011 28.3515 35.0011 25.9012 35.0011 21.0006V14.0004C35.0011 9.09982 35.0011 6.64951 34.0473 4.77773C33.2084 3.13126 31.8698 1.79264 30.2233 0.953722C28.3515 0 25.9012 0 21.0006 0H14.0004C9.09982 0 6.64951 0 4.77773 0.953722C3.13126 1.79264 1.79264 3.13126 0.953722 4.77773ZM12.2533 4.84962C13.6109 4.78784 14.0447 4.77273 17.5012 4.77273H17.4972C20.9548 4.77273 21.387 4.78784 22.7445 4.84962C24.0995 4.91167 25.0248 5.12617 25.8362 5.44091C26.6741 5.76572 27.382 6.20057 28.09 6.90852C28.798 7.61595 29.2328 8.32602 29.5589 9.16311C29.8718 9.97235 30.0866 10.8972 30.1502 12.2521C30.2112 13.6097 30.2271 14.0435 30.2271 17.5C30.2271 20.9565 30.2112 21.3892 30.1502 22.7468C30.0866 24.1012 29.8718 25.0263 29.5589 25.8358C29.2328 26.6726 28.798 27.3827 28.09 28.0902C27.3828 28.7981 26.6738 29.234 25.837 29.5591C25.0272 29.8738 24.1013 30.0883 22.7464 30.1504C21.3888 30.2122 20.9564 30.2273 17.4996 30.2273C14.0433 30.2273 13.6098 30.2122 12.2522 30.1504C10.8976 30.0883 9.97246 29.8738 9.16269 29.5591C8.32614 29.234 7.61606 28.7981 6.9089 28.0902C6.20121 27.3827 5.76636 26.6726 5.44102 25.8356C5.12655 25.0263 4.91204 24.1015 4.84973 22.7466C4.78822 21.389 4.77284 20.9565 4.77284 17.5C4.77284 14.0435 4.78875 13.6094 4.84947 12.2519C4.91045 10.8975 5.12523 9.97235 5.44076 9.16284C5.76689 8.32602 6.20174 7.61595 6.9097 6.90852C7.61712 6.20083 8.32719 5.76599 9.16428 5.44091C9.97352 5.12617 10.8984 4.91167 12.2533 4.84962Z" fill="#FAA4DD"/>
</svg>
