<svg width="35" height="35" viewBox="0 0 35 35" fill="none" xmlns="http://www.w3.org/2000/svg">
<path fill-rule="evenodd" clip-rule="evenodd" d="M2.40717 15.0673C11.8024 10.128 18.0673 6.87167 21.202 5.29839C30.1522 0.806355 32.0119 0.0260412 33.2241 0.000274728C33.4907 -0.00539232 34.0868 0.0743353 34.473 0.45241C34.799 0.771649 34.8887 1.2029 34.9316 1.50557C34.9746 1.80824 35.028 2.49774 34.9855 3.0365C34.5005 9.18575 32.4019 24.1084 31.3342 30.9956C30.8824 33.9099 29.9929 34.887 29.1317 34.9827C27.2601 35.1905 25.839 33.4902 24.0263 32.0564C21.1898 29.8127 19.5873 28.416 16.834 26.2267C13.652 23.6965 15.7148 22.3058 17.5281 20.0331C18.0027 19.4383 26.2488 10.3877 26.4085 9.5667C26.4284 9.46401 26.4469 9.08125 26.2585 8.87914C26.07 8.67704 25.7919 8.74615 25.5912 8.80112C25.3067 8.87903 20.7754 12.4931 11.9971 19.6433C10.7109 20.709 9.54588 21.2283 8.50207 21.2011C7.35135 21.1711 5.13783 20.416 3.49231 19.7705C1.474 18.9789 -0.130104 18.5603 0.00957771 17.2158C0.0823326 16.5155 0.881529 15.7994 2.40717 15.0673Z" fill="#FAA4DD"/>
</svg>
