<svg width="32" height="35" viewBox="0 0 32 35" fill="none" xmlns="http://www.w3.org/2000/svg">
<path d="M16.8864 0.0291667C18.7969 0 20.6927 0.0145833 22.5885 0C22.7052 2.23125 23.5073 4.50625 25.1406 6.08125C26.7739 7.7 29.0781 8.44375 31.3239 8.69167V14.5688C29.2239 14.4958 27.1094 14.0583 25.1989 13.1542C24.3677 12.775 23.5948 12.2938 22.8364 11.7979C22.8219 16.0563 22.851 20.3146 22.8073 24.5583C22.6906 26.6 22.0198 28.6271 20.8385 30.3042C18.9281 33.1042 15.6177 34.9271 12.2198 34.9854C10.1344 35.1021 8.04895 34.5333 6.26978 33.4833C3.32395 31.7479 1.25311 28.5688 0.946863 25.1563C0.917697 24.4271 0.903113 23.6979 0.93228 22.9833C1.19478 20.2125 2.56561 17.5583 4.69478 15.75C7.11561 13.65 10.4989 12.6438 13.6635 13.2417C13.6927 15.4 13.6052 17.5583 13.6052 19.7167C12.1614 19.25 10.4698 19.3813 9.20103 20.2563C8.28228 20.8542 7.58228 21.7729 7.2177 22.8083C6.91145 23.5521 6.99895 24.3688 7.01353 25.1563C7.36353 27.5479 9.6677 29.5604 12.1177 29.3417C13.751 29.3271 15.3114 28.3792 16.1573 26.9938C16.4344 26.5125 16.7406 26.0167 16.7552 25.4479C16.901 22.8375 16.8427 20.2417 16.8573 17.6313C16.8719 11.7542 16.8427 5.89167 16.8864 0.0291667V0.0291667Z" fill="#FAA4DD"/>
</svg>
