<svg width="125" height="63" viewBox="0 0 125 63" fill="none" xmlns="http://www.w3.org/2000/svg">
<path d="M1.90975 27.8125V27.4968C2.0781 27.4968 2.22541 27.4337 2.35167 27.3075C2.47793 27.1812 2.58315 27.0339 2.66732 26.8655C2.77254 26.6972 2.8462 26.5183 2.88828 26.3289C2.93037 26.1185 2.95141 25.9291 2.95141 25.7607V9.59916C2.95141 9.24141 2.89881 8.90472 2.79359 8.58906C2.68837 8.2734 2.37271 8.10505 1.84662 8.08401V7.76835L5.03474 6.78982V25.7607C5.03474 25.9291 5.05579 26.1185 5.09787 26.3289C5.13996 26.5183 5.20309 26.6972 5.28727 26.8655C5.39249 27.0339 5.49771 27.1812 5.60292 27.3075C5.72919 27.4337 5.87649 27.4968 6.04484 27.4968V27.8125H1.90975ZM9.53111 27.8125V27.4968C9.69946 27.4968 9.84677 27.4337 9.97303 27.3075C10.0993 27.1812 10.2045 27.0339 10.2887 26.8655C10.3729 26.6972 10.436 26.5183 10.4781 26.3289C10.5202 26.1185 10.5412 25.9291 10.5412 25.7607V17.0171C10.5412 16.6593 10.4886 16.3226 10.3834 16.007C10.2782 15.6703 9.97303 15.4914 9.46798 15.4704V15.1863L12.6245 14.1762V25.7607C12.6245 25.9291 12.6456 26.1185 12.6877 26.3289C12.7298 26.5183 12.7929 26.6972 12.8771 26.8655C12.9612 27.0339 13.0665 27.1812 13.1927 27.3075C13.319 27.4337 13.4663 27.4968 13.6346 27.4968V27.8125H9.53111ZM9.68894 11.1459C9.68894 10.725 9.82572 10.3673 10.0993 10.0726C10.3939 9.77803 10.7516 9.63072 11.1725 9.63072C11.5934 9.63072 11.9511 9.77803 12.2458 10.0726C12.5404 10.3673 12.6877 10.725 12.6877 11.1459C12.6877 11.5667 12.5404 11.914 12.2458 12.1875C11.9511 12.4611 11.5934 12.5979 11.1725 12.5979C10.7516 12.5979 10.3939 12.4611 10.0993 12.1875C9.82572 11.914 9.68894 11.5667 9.68894 11.1459ZM29.7008 25.7607C29.7008 25.9291 29.7218 26.1185 29.7639 26.3289C29.806 26.5183 29.8691 26.6972 29.9533 26.8655C30.0585 27.0339 30.1637 27.1812 30.269 27.3075C30.3952 27.4337 30.5425 27.4968 30.7109 27.4968V27.8125H26.6389V27.4968C26.7862 27.4968 26.923 27.4337 27.0493 27.3075C27.1755 27.1812 27.2808 27.0339 27.3649 26.8655C27.4701 26.6972 27.5438 26.5183 27.5859 26.3289C27.628 26.1185 27.649 25.9291 27.649 25.7607V19.8895C27.649 19.132 27.5438 18.4691 27.3334 17.9009C27.1229 17.3327 26.8388 16.8592 26.4811 16.4805C26.1233 16.1017 25.713 15.8281 25.25 15.6598C24.8081 15.4704 24.3557 15.3757 23.8927 15.3757C23.4298 15.3757 22.9668 15.4704 22.5038 15.6598C22.0619 15.8491 21.6621 16.1017 21.3043 16.4173C20.9676 16.7119 20.6835 17.0697 20.4521 17.4906C20.2416 17.8904 20.1364 18.3113 20.1364 18.7532V25.7607C20.1364 25.9291 20.1575 26.1185 20.1995 26.3289C20.2416 26.5183 20.3048 26.6972 20.3889 26.8655C20.4942 27.0339 20.5994 27.1812 20.7046 27.3075C20.8309 27.4337 20.9782 27.4968 21.1465 27.4968V27.8125H17.043V27.4968C17.1903 27.4968 17.3271 27.4337 17.4533 27.3075C17.5796 27.1812 17.6848 27.0339 17.769 26.8655C17.8742 26.6972 17.9479 26.5183 17.9899 26.3289C18.032 26.1185 18.0531 25.9291 18.0531 25.7607V17.0486C18.0531 16.6909 18.0005 16.3542 17.8953 16.0385C17.79 15.7018 17.4849 15.523 16.9799 15.5019V15.2178L20.1364 14.2077V15.9438C20.2837 15.7755 20.4731 15.5966 20.7046 15.4072C20.9361 15.1968 21.2096 15.0074 21.5253 14.839C21.862 14.6497 22.2408 14.5023 22.6617 14.3971C23.1036 14.2709 23.6191 14.2077 24.2084 14.2077C25.1974 14.2077 26.0392 14.3761 26.7336 14.7128C27.4281 15.0495 27.9962 15.4914 28.4382 16.0385C28.8801 16.5646 29.1957 17.1539 29.3851 17.8062C29.5956 18.4375 29.7008 19.0583 29.7008 19.6686V25.7607ZM42.1448 27.8125V26.2027L41.9869 26.3605C41.4609 26.8866 40.8506 27.2969 40.1561 27.5915C39.4827 27.8862 38.662 28.0335 37.694 28.0335C36.9575 28.0335 36.3262 27.9493 35.8001 27.7809C35.274 27.6126 34.8426 27.3811 34.5059 27.0865C34.1692 26.7708 33.9167 26.4131 33.7483 26.0133C33.601 25.6134 33.5274 25.1926 33.5274 24.7506C33.5274 24.0352 33.7168 23.4038 34.0955 22.8567C34.4954 22.3096 35.0636 21.8256 35.8001 21.4047C36.5366 20.9838 37.431 20.605 38.4832 20.2683C39.5564 19.9106 40.7769 19.5634 42.1448 19.2267C42.1027 18.406 41.9343 17.7431 41.6397 17.238C41.3451 16.733 40.9979 16.3437 40.5981 16.0701C40.1982 15.7755 39.7774 15.5861 39.3354 15.5019C38.8935 15.3967 38.5147 15.3441 38.1991 15.3441C37.6519 15.3441 37.1679 15.4283 36.7471 15.5966C36.3472 15.765 35.9895 15.9859 35.6738 16.2595C35.3792 16.512 35.1267 16.7961 34.9163 17.1118C34.7058 17.4064 34.5375 17.6905 34.4112 17.964H34.1271V15.6598C34.2955 15.6387 34.4533 15.5861 34.6006 15.5019C34.7479 15.4177 34.9268 15.3336 35.1372 15.2494C35.4529 15.1231 35.8843 14.9443 36.4314 14.7128C36.9785 14.4603 37.7466 14.334 38.7357 14.334C39.8931 14.334 40.8295 14.4813 41.545 14.7759C42.2605 15.0705 42.8076 15.4598 43.1864 15.9438C43.5863 16.4278 43.8493 16.9855 43.9756 17.6168C44.1018 18.2271 44.165 18.8584 44.165 19.5108V25.7607C44.165 26.1816 44.2597 26.5814 44.4491 26.9602C44.6385 27.318 44.891 27.4968 45.2066 27.4968V27.8125H42.1448ZM42.1448 24.8138V20.2999L41.8291 20.363C41.3241 20.4893 40.7033 20.6576 39.9667 20.8681C39.2513 21.0785 38.5673 21.3521 37.915 21.6888C37.2626 22.0255 36.705 22.4253 36.242 22.8883C35.779 23.3512 35.5476 23.8878 35.5476 24.4981C35.5476 25.1715 35.8211 25.7292 36.3683 26.1711C36.9154 26.613 37.6309 26.834 38.5147 26.834C39.2092 26.834 39.8194 26.6867 40.3455 26.392C40.8716 26.0764 41.3556 25.6766 41.7976 25.1926L42.1448 24.8138ZM68.4399 25.7607C68.4399 25.9291 68.4609 26.1185 68.503 26.3289C68.5451 26.5183 68.6082 26.6972 68.6924 26.8655C68.7766 27.0339 68.8713 27.1812 68.9765 27.3075C69.1028 27.4337 69.2501 27.4968 69.4184 27.4968V27.8125H65.3149V27.4968C65.4832 27.4968 65.6306 27.4337 65.7568 27.3075C65.8831 27.1812 65.9883 27.0339 66.0725 26.8655C66.1777 26.6972 66.2513 26.5183 66.2934 26.3289C66.3355 26.1185 66.3566 25.9291 66.3566 25.7607V18.9426C66.3566 18.4586 66.2829 17.9956 66.1356 17.5537C66.0093 17.1118 65.8094 16.733 65.5359 16.4173C65.2623 16.0806 64.9256 15.8176 64.5258 15.6282C64.1259 15.4177 63.6735 15.3125 63.1684 15.3125C62.6003 15.3125 62.1057 15.4493 61.6849 15.7229C61.285 15.9754 60.9483 16.2911 60.6748 16.6698C60.4222 17.0486 60.2328 17.4379 60.1066 17.8378C59.9803 18.2166 59.9172 18.5322 59.9172 18.7847V25.7607C59.9172 25.9291 59.9382 26.1185 59.9803 26.3289C60.0224 26.5183 60.0855 26.6972 60.1697 26.8655C60.2749 27.0339 60.3801 27.1812 60.4854 27.3075C60.6116 27.4337 60.7589 27.4968 60.9273 27.4968V27.8125H56.8553V27.4968C57.0026 27.4968 57.1394 27.4337 57.2657 27.3075C57.3919 27.1812 57.4972 27.0339 57.5813 26.8655C57.6865 26.6972 57.7602 26.5183 57.8023 26.3289C57.8444 26.1185 57.8654 25.9291 57.8654 25.7607V18.7532C57.8654 18.2481 57.7707 17.7852 57.5813 17.3643C57.413 16.9224 57.171 16.5541 56.8553 16.2595C56.5607 15.9649 56.2135 15.7334 55.8137 15.5651C55.4349 15.3967 55.0456 15.3125 54.6457 15.3125C54.0986 15.3125 53.6146 15.4177 53.1937 15.6282C52.7939 15.8386 52.4572 16.1017 52.1836 16.4173C51.9311 16.733 51.7312 17.0802 51.5839 17.459C51.4576 17.8167 51.3945 18.164 51.3945 18.5007V25.7607C51.3945 25.9291 51.4155 26.1185 51.4576 26.3289C51.4997 26.5183 51.5628 26.6972 51.647 26.8655C51.7522 27.0339 51.8574 27.1812 51.9627 27.3075C52.0889 27.4337 52.2362 27.4968 52.4046 27.4968V27.8125H48.3326V27.4968C48.4799 27.4968 48.6167 27.4337 48.743 27.3075C48.8692 27.1812 48.9744 27.0339 49.0586 26.8655C49.1638 26.6972 49.2375 26.5183 49.2796 26.3289C49.3217 26.1185 49.3427 25.9291 49.3427 25.7607V17.3327C49.3427 17.1644 49.3322 16.975 49.3111 16.7645C49.2901 16.5541 49.248 16.3542 49.1849 16.1648C49.1218 15.9754 49.0165 15.8176 48.8692 15.6913C48.7219 15.5651 48.522 15.5019 48.2695 15.5019V15.2178L51.3945 14.1762V15.786C51.7101 15.4283 52.1415 15.081 52.6887 14.7443C53.2568 14.4076 53.9934 14.2393 54.8983 14.2393C55.4875 14.2393 56.0136 14.3235 56.4765 14.4918C56.9395 14.6602 57.3393 14.8811 57.676 15.1547C58.0338 15.4072 58.3389 15.7018 58.5914 16.0385C58.844 16.3752 59.0544 16.7014 59.2227 17.0171C59.3911 16.7014 59.591 16.3858 59.8225 16.0701C60.054 15.7334 60.3275 15.4283 60.6432 15.1547C60.9799 14.8811 61.3692 14.6602 61.8111 14.4918C62.2741 14.3235 62.8107 14.2393 63.421 14.2393C64.5994 14.2393 65.5253 14.4497 66.1987 14.8706C66.8721 15.2915 67.3667 15.7965 67.6823 16.3858C68.019 16.975 68.2295 17.5958 68.3136 18.2481C68.3978 18.8794 68.4399 19.4161 68.4399 19.858V25.7607ZM79.2807 28.0335C78.2285 28.0335 77.2815 27.8651 76.4398 27.5284C75.598 27.1707 74.872 26.6972 74.2618 26.108C73.6725 25.4977 73.2096 24.7822 72.8729 23.9615C72.5572 23.1408 72.3994 22.2464 72.3994 21.2784C72.3994 20.2473 72.5783 19.3108 72.936 18.4691C73.2938 17.6063 73.7883 16.8698 74.4196 16.2595C75.0509 15.6492 75.798 15.1757 76.6607 14.839C77.5235 14.5023 78.46 14.334 79.4701 14.334C80.4802 14.334 81.4061 14.5023 82.2479 14.839C83.0896 15.1547 83.8156 15.6071 84.4259 16.1964C85.0362 16.7856 85.5096 17.4906 85.8463 18.3113C86.183 19.1109 86.3514 19.9948 86.3514 20.9628C86.3514 21.8676 86.1936 22.7515 85.8779 23.6143C85.5833 24.456 85.1308 25.2031 84.5206 25.8554C83.9314 26.5078 83.1948 27.0339 82.311 27.4337C81.4482 27.8335 80.4381 28.0335 79.2807 28.0335ZM79.0913 15.3757C78.3337 15.4177 77.6603 15.6071 77.0711 15.9438C76.5029 16.2595 76.0189 16.6804 75.6191 17.2065C75.2403 17.7115 74.9457 18.2902 74.7352 18.9426C74.5459 19.5949 74.4512 20.2578 74.4512 20.9312C74.4512 21.7098 74.5669 22.4674 74.7984 23.2039C75.0509 23.9194 75.3981 24.5612 75.84 25.1294C76.303 25.6976 76.8501 26.15 77.4815 26.4867C78.1128 26.8234 78.8177 26.9918 79.5963 26.9918C80.375 26.9918 81.0589 26.8234 81.6481 26.4867C82.2584 26.15 82.7634 25.7186 83.1633 25.1926C83.5631 24.6454 83.8577 24.0352 84.0471 23.3618C84.2575 22.6884 84.3628 22.015 84.3628 21.3416C84.3628 20.6471 84.2575 19.9527 84.0471 19.2582C83.8367 18.5427 83.5105 17.9009 83.0686 17.3327C82.6266 16.7435 82.069 16.27 81.3956 15.9123C80.7432 15.5545 79.9751 15.3757 79.0913 15.3757ZM92.268 15.6282V23.2355C92.268 23.7826 92.2785 24.2772 92.2995 24.7191C92.3206 25.161 92.3732 25.5293 92.4573 25.8239C92.5415 26.1185 92.6678 26.35 92.8361 26.5183C93.0045 26.6656 93.236 26.7393 93.5306 26.7393C93.9725 26.7393 94.3828 26.5288 94.7616 26.108C95.1615 25.6871 95.414 25.182 95.5192 24.5928H95.8033V26.8971C95.6139 26.8971 95.4561 26.9602 95.3298 27.0865C95.1615 27.2338 94.9195 27.3916 94.6038 27.56C94.3092 27.7283 93.8568 27.8125 93.2465 27.8125C92.4889 27.8125 91.8997 27.6652 91.4788 27.3706C91.0579 27.076 90.7528 26.6867 90.5634 26.2027C90.374 25.7186 90.2583 25.182 90.2162 24.5928C90.1951 24.0036 90.1846 23.4038 90.1846 22.7936V15.6282H88.417V14.555H90.1846V11.7456C90.1846 11.3879 90.132 11.0617 90.0268 10.7671C89.9426 10.4514 89.6375 10.2831 89.1114 10.262V9.94638L92.268 8.93628V14.555H95.8033V15.6282H92.268ZM99.9118 21.4363C99.9959 22.1728 100.175 22.8777 100.448 23.5511C100.722 24.2035 101.08 24.7822 101.522 25.2873C101.985 25.7923 102.542 26.2027 103.195 26.5183C103.847 26.8129 104.605 26.9602 105.467 26.9602C105.93 26.9602 106.414 26.8971 106.919 26.7708C107.445 26.6235 107.929 26.4236 108.371 26.1711C108.813 25.9186 109.203 25.6134 109.539 25.2557C109.897 24.8769 110.139 24.456 110.265 23.9931H110.549V26.3605C110.423 26.3605 110.276 26.4026 110.107 26.4867C109.96 26.5709 109.781 26.6761 109.571 26.8024C109.15 27.0549 108.582 27.3285 107.866 27.6231C107.151 27.8967 106.204 28.0335 105.025 28.0335C104.078 28.0335 103.174 27.8967 102.311 27.6231C101.469 27.3495 100.722 26.9287 100.07 26.3605C99.4172 25.7923 98.8911 25.0663 98.4913 24.1825C98.1125 23.2986 97.9231 22.2464 97.9231 21.0259C97.9231 20.2473 98.0494 19.4581 98.3019 18.6585C98.5755 17.8588 98.9753 17.1433 99.5014 16.512C100.049 15.8597 100.743 15.3336 101.585 14.9337C102.426 14.5339 103.437 14.334 104.615 14.334C105.667 14.334 106.583 14.5129 107.361 14.8706C108.161 15.2284 108.813 15.7229 109.318 16.3542C109.844 16.9855 110.234 17.7326 110.486 18.5953C110.739 19.4581 110.865 20.4051 110.865 21.4363H99.9118ZM104.489 15.3757C103.752 15.3757 103.11 15.523 102.563 15.8176C102.037 16.1122 101.585 16.491 101.206 16.9539C100.827 17.4169 100.533 17.943 100.322 18.5322C100.112 19.1214 99.9749 19.7107 99.9118 20.2999H108.908C108.887 19.6896 108.771 19.0899 108.561 18.5007C108.371 17.9114 108.098 17.3853 107.74 16.9224C107.382 16.4594 106.93 16.0911 106.383 15.8176C105.836 15.523 105.204 15.3757 104.489 15.3757ZM122.83 24.214C122.83 24.7612 122.693 25.2662 122.42 25.7292C122.146 26.1921 121.767 26.6025 121.283 26.9602C120.82 27.2969 120.273 27.5705 119.642 27.7809C119.011 27.9703 118.327 28.065 117.59 28.065C116.685 28.065 115.949 27.9493 115.381 27.7178C114.812 27.4653 114.328 27.2128 113.929 26.9602C113.655 26.7919 113.403 26.6551 113.171 26.5499C112.94 26.4236 112.687 26.3605 112.413 26.3605V23.9615H112.729C112.792 24.2561 112.971 24.5823 113.266 24.94C113.581 25.2767 113.95 25.5924 114.371 25.887C114.812 26.1816 115.286 26.4341 115.791 26.6446C116.317 26.834 116.843 26.9287 117.369 26.9287C117.748 26.9287 118.137 26.8866 118.537 26.8024C118.937 26.7182 119.295 26.5814 119.61 26.392C119.947 26.2027 120.221 25.9712 120.431 25.6976C120.663 25.403 120.778 25.0558 120.778 24.6559C120.778 24.2561 120.663 23.9089 120.431 23.6143C120.2 23.3197 119.905 23.0671 119.547 22.8567C119.19 22.6252 118.779 22.4253 118.316 22.257C117.853 22.0886 117.39 21.9308 116.927 21.7835C116.38 21.6151 115.823 21.4257 115.254 21.2153C114.707 21.0049 114.213 20.7629 113.771 20.4893C113.329 20.1947 112.971 19.8475 112.698 19.4476C112.424 19.0267 112.287 18.5322 112.287 17.964C112.287 17.48 112.371 17.0171 112.54 16.5752C112.729 16.1332 113.024 15.7544 113.424 15.4388C113.844 15.1021 114.381 14.839 115.033 14.6497C115.686 14.4392 116.475 14.334 117.401 14.334C118.222 14.334 118.853 14.4076 119.295 14.555C119.758 14.6812 120.137 14.818 120.431 14.9653C120.621 15.0705 120.81 15.1547 120.999 15.2178C121.189 15.2599 121.399 15.281 121.631 15.281V17.4906H121.378C120.999 16.7961 120.421 16.27 119.642 15.9123C118.863 15.5545 118.064 15.3757 117.243 15.3757C116.717 15.3757 116.264 15.4493 115.886 15.5966C115.507 15.7229 115.191 15.8912 114.939 16.1017C114.707 16.2911 114.528 16.512 114.402 16.7645C114.297 17.0171 114.244 17.2696 114.244 17.5221C114.244 17.8799 114.339 18.185 114.528 18.4375C114.739 18.69 115.012 18.911 115.349 19.1004C115.707 19.2898 116.096 19.4687 116.517 19.637C116.959 19.8054 117.422 19.9632 117.906 20.1105C118.495 20.2999 119.084 20.5103 119.674 20.7418C120.263 20.9522 120.789 21.2153 121.252 21.5309C121.715 21.8466 122.094 22.2254 122.388 22.6673C122.683 23.0882 122.83 23.6038 122.83 24.214Z" fill="black"/>
<path d="M33.5069 49.0564C33.5069 50.1086 33.2964 51.0135 32.8756 51.7711C32.4547 52.5076 31.9076 53.1074 31.2342 53.5703C30.5818 54.0333 29.8348 54.37 28.993 54.5804C28.1723 54.7909 27.3516 54.8961 26.5309 54.8961C25.6891 54.8961 24.9631 54.8119 24.3529 54.6436C23.7426 54.4752 23.1849 54.3174 22.6799 54.1701C22.3432 54.0649 22.0381 53.9807 21.7645 53.9175C21.4909 53.8334 21.2173 53.7913 20.9438 53.7913V50.1928H21.2594C21.2594 50.9925 21.4593 51.6343 21.8592 52.1183C22.2801 52.5813 22.7641 52.939 23.3112 53.1915C23.8583 53.4441 24.4055 53.6124 24.9526 53.6966C25.4997 53.7597 25.8996 53.7913 26.1521 53.7913C27.057 53.7913 27.8356 53.665 28.488 53.4125C29.1403 53.1389 29.6769 52.7917 30.0978 52.3708C30.5187 51.9289 30.8238 51.4449 31.0132 50.9188C31.2236 50.3927 31.3289 49.8561 31.3289 49.309C31.3289 48.6145 31.1815 48.0358 30.8869 47.5729C30.5923 47.0889 30.203 46.668 29.719 46.3102C29.256 45.9525 28.7194 45.6474 28.1092 45.3948C27.4989 45.1423 26.8781 44.8898 26.2468 44.6373C25.5313 44.3637 24.8263 44.0796 24.1319 43.785C23.4375 43.4904 22.8167 43.1326 22.2695 42.7118C21.7224 42.2698 21.2805 41.7543 20.9438 41.1651C20.6071 40.5548 20.4387 39.8077 20.4387 38.9239C20.4387 37.998 20.6176 37.1983 20.9753 36.5249C21.3331 35.8305 21.8066 35.2623 22.3958 34.8204C23.0061 34.3784 23.69 34.0523 24.4476 33.8418C25.2262 33.6104 26.0153 33.4946 26.815 33.4946C27.3621 33.4946 27.8777 33.5367 28.3617 33.6209C28.8457 33.684 29.3087 33.7682 29.7506 33.8734C30.1083 33.9576 30.4555 34.0312 30.7922 34.0944C31.1289 34.1364 31.4551 34.1575 31.7708 34.1575V37.4087H31.4551C31.413 36.3145 30.9816 35.5779 30.1609 35.1992C29.3402 34.7993 28.2039 34.5994 26.7518 34.5994C25.9101 34.5994 25.2157 34.7467 24.6685 35.0413C24.1424 35.3149 23.7216 35.6621 23.4059 36.083C23.0902 36.4828 22.8693 36.9247 22.743 37.4087C22.6378 37.8717 22.5852 38.2821 22.5852 38.6398C22.5852 39.229 22.7115 39.7341 22.964 40.155C23.2375 40.5758 23.5953 40.9441 24.0372 41.2597C24.4791 41.5754 24.9842 41.8595 25.5524 42.112C26.1416 42.3645 26.7518 42.6065 27.3832 42.838C28.0986 43.1116 28.8247 43.4062 29.5612 43.7219C30.2977 44.0375 30.9501 44.4268 31.5182 44.8898C32.1075 45.3528 32.581 45.9209 32.9387 46.5943C33.3175 47.2677 33.5069 48.0884 33.5069 49.0564ZM43.0121 54.3279H43.1699V54.6436H38.6876V54.3279H38.8454C39.0138 54.3279 39.1611 54.2648 39.2873 54.1385C39.4136 54.0122 39.5188 53.8649 39.603 53.6966C39.7082 53.5282 39.7819 53.3494 39.8239 53.16C39.866 52.9495 39.8871 52.7601 39.8871 52.5918V34.9782H36.2255C35.8888 34.9782 35.5942 35.0518 35.3416 35.1992C35.0891 35.3465 34.8787 35.5359 34.7103 35.7673C34.542 35.9778 34.4157 36.2198 34.3315 36.4933C34.2474 36.7459 34.2053 36.9984 34.2053 37.2509H33.8896V33.8103H48.0626V37.2509H47.7469C47.7469 36.9984 47.7048 36.7459 47.6206 36.4933C47.5365 36.2198 47.4102 35.9778 47.2419 35.7673C47.0735 35.5359 46.8631 35.3465 46.6105 35.1992C46.358 35.0518 46.0634 34.9782 45.7267 34.9782H42.002V52.5918C42.002 52.7601 42.023 52.9495 42.0651 53.16C42.1072 53.3494 42.1703 53.5282 42.2545 53.6966C42.3597 53.8649 42.4649 54.0122 42.5701 54.1385C42.6964 54.2648 42.8437 54.3279 43.0121 54.3279ZM58.857 33.4946C60.4984 33.4946 61.9715 33.7892 63.2762 34.3785C64.5809 34.9466 65.6857 35.7252 66.5906 36.7143C67.5165 37.6823 68.2215 38.8187 68.7055 40.1234C69.2105 41.4071 69.463 42.7539 69.463 44.1638C69.463 45.7421 69.1684 47.1941 68.5792 48.5198C68.011 49.8456 67.2219 50.9819 66.2118 51.9289C65.2017 52.8759 64.0232 53.6229 62.6764 54.1701C61.3507 54.6962 59.9302 54.9592 58.4151 54.9592C56.7947 54.9592 55.3322 54.6646 54.0275 54.0754C52.7438 53.4861 51.6495 52.7075 50.7446 51.7395C49.8608 50.7715 49.1769 49.6562 48.6929 48.3936C48.2089 47.1309 47.9669 45.8157 47.9669 44.4479C47.9669 43.1011 48.2089 41.7753 48.6929 40.4706C49.1769 39.1449 49.8819 37.9664 50.8078 36.9353C51.7547 35.9041 52.9016 35.0729 54.2484 34.4416C55.5952 33.8103 57.1314 33.4946 58.857 33.4946ZM58.8254 53.8544C60.2354 53.7913 61.4664 53.4756 62.5186 52.9074C63.5918 52.3182 64.4862 51.5817 65.2017 50.6979C65.9172 49.793 66.4433 48.8039 66.78 47.7307C67.1377 46.6575 67.3166 45.5948 67.3166 44.5426C67.3166 43.3852 67.1061 42.2172 66.6853 41.0388C66.2644 39.8603 65.6646 38.7976 64.886 37.8507C64.1074 36.8827 63.171 36.104 62.0767 35.5148C61.0035 34.9045 59.7934 34.5994 58.4467 34.5994C57.1419 34.5994 55.974 34.894 54.9429 35.4832C53.9117 36.0514 53.0279 36.788 52.2914 37.6928C51.5759 38.5977 51.0287 39.6078 50.65 40.7231C50.2712 41.8384 50.0818 42.9327 50.0818 44.006C50.0818 45.1634 50.3027 46.3313 50.7446 47.5097C51.1866 48.6671 51.7968 49.7193 52.5755 50.6663C53.3541 51.6133 54.2695 52.3814 55.3217 52.9706C56.3949 53.5598 57.5628 53.8544 58.8254 53.8544ZM76.5256 54.3279H76.6834V54.6436H72.2327V54.3279H72.3905C72.5378 54.3279 72.6746 54.2648 72.8008 54.1385C72.9271 54.0122 73.0323 53.8649 73.1165 53.6966C73.2217 53.5282 73.2954 53.3494 73.3375 53.16C73.3796 52.9495 73.4006 52.7601 73.4006 52.5918V35.7673C73.4006 35.62 73.3796 35.4517 73.3375 35.2623C73.2954 35.0729 73.2217 34.894 73.1165 34.7257C73.0323 34.5573 72.9271 34.4205 72.8008 34.3153C72.6746 34.1891 72.5378 34.1259 72.3905 34.1259H72.2327V33.8103H77.7251C79.8295 33.8103 81.4498 34.2206 82.5862 35.0413C83.7436 35.862 84.3223 37.072 84.3223 38.6714C84.3223 39.471 84.1855 40.176 83.9119 40.7863C83.6594 41.3755 83.3122 41.8911 82.8703 42.333C82.4284 42.7539 81.9023 43.1011 81.292 43.3746C80.7028 43.6272 80.0715 43.8166 79.3981 43.9428L81.6708 47.415C82.2179 48.2568 82.7756 49.088 83.3438 49.9087C83.9119 50.7084 84.4696 51.5396 85.0167 52.4024C85.164 52.6128 85.3219 52.8338 85.4902 53.0653C85.6796 53.2968 85.869 53.5072 86.0584 53.6966C86.2688 53.886 86.4793 54.0438 86.6897 54.1701C86.9212 54.2753 87.1527 54.3279 87.3841 54.3279V54.6436H86.0268C85.1851 54.6436 84.4906 54.4436 83.9435 54.0438C83.4174 53.6229 82.9755 53.1389 82.6177 52.5918C81.6708 51.2029 80.7238 49.793 79.7768 48.362C78.8509 46.931 77.925 45.5211 76.9991 44.1322C76.7676 44.1112 76.5151 44.0901 76.2415 44.0691C75.989 44.027 75.747 43.9849 75.5155 43.9428V52.5918C75.5155 52.7601 75.5365 52.9495 75.5786 53.16C75.6207 53.3494 75.6838 53.5282 75.768 53.6966C75.8732 53.8649 75.9785 54.0122 76.0837 54.1385C76.2099 54.2648 76.3572 54.3279 76.5256 54.3279ZM75.5155 34.8835V42.9012H75.6733C75.8417 42.9222 76.1047 42.9432 76.4625 42.9643C76.8412 42.9643 77.3042 42.9643 77.8513 42.9643C78.2933 42.9643 78.7562 42.9012 79.2402 42.7749C79.7453 42.6276 80.2082 42.3961 80.6291 42.0805C81.071 41.7438 81.4288 41.3124 81.7023 40.7863C81.997 40.2602 82.1443 39.5973 82.1443 38.7976C82.1443 37.998 81.9864 37.3456 81.6708 36.8406C81.3762 36.3355 80.9553 35.9357 80.4082 35.6411C79.8821 35.3465 79.2402 35.1465 78.4827 35.0413C77.7251 34.9361 76.8939 34.8835 75.989 34.8835H75.5155ZM89.2793 54.3279H89.4371C89.6055 54.3279 89.7528 54.2753 89.8791 54.1701C90.0053 54.0438 90.1105 53.8965 90.1947 53.7282C90.2999 53.5598 90.3736 53.3809 90.4157 53.1915C90.4788 53.0021 90.5104 52.8233 90.5104 52.6549V35.7673C90.5104 35.62 90.4788 35.4517 90.4157 35.2623C90.3736 35.0729 90.2999 34.894 90.1947 34.7257C90.1105 34.5573 90.0053 34.4205 89.8791 34.3153C89.7528 34.1891 89.6055 34.1259 89.4371 34.1259H89.2793V33.8103H101.432V36.7459H101.116C101.074 36.2619 100.885 35.841 100.548 35.4832C100.212 35.1045 99.6854 34.9151 98.9699 34.9151H92.6253V42.9012H97.8652C98.3492 42.9012 98.749 42.7539 99.0646 42.4592C99.4013 42.1646 99.5697 41.8174 99.5697 41.4176H99.8854V45.3633H99.5697C99.5697 44.9845 99.4119 44.6583 99.0962 44.3847C98.7806 44.1112 98.3702 43.9744 97.8652 43.9744H92.6253V53.5388H99.5381C99.938 53.5388 100.285 53.4441 100.58 53.2547C100.874 53.0653 101.116 52.8443 101.306 52.5918C101.516 52.3182 101.664 52.0341 101.748 51.7395C101.853 51.4239 101.906 51.1608 101.906 50.9504H102.221V54.6436H89.2793V54.3279Z" fill="#F314A7"/>
</svg>
